<svg width="80" height="20" viewBox="0 0 80 20" fill="none" xmlns="http://www.w3.org/2000/svg">
<path d="M7.37322 7.53431C7.72068 7.86273 7.67357 8.39769 7.37322 8.7374L2.1543 13.6367L7.37322 18.5359C7.6771 18.879 7.72186 19.4106 7.37322 19.739C7.01045 20.0821 6.46159 20.0821 6.09882 19.739L0.272138 14.2382C-0.0906312 13.8962 -0.0906312 13.3782 0.272138 13.0351L6.09882 7.53431C6.42508 7.16525 7.03048 7.2104 7.37322 7.53431ZM72.654 7.53431C72.9802 7.16525 73.5844 7.2104 73.9284 7.53431L79.7551 13.0351C80.0813 13.3432 80.0813 13.9301 79.7551 14.2382L73.9284 19.739C73.5844 20.0629 72.9802 20.1092 72.654 19.739C72.2617 19.4309 72.31 18.861 72.654 18.5359L77.8434 13.6367L72.654 8.7374C72.3124 8.41575 72.2629 7.84242 72.654 7.53431Z" fill="#F4F2ED"/>
<path d="M14.4755 12.7487C14.4755 12.3007 14.8736 11.8898 15.3553 11.8898H22.5789C22.215 11.0299 21.6072 10.3143 20.7875 9.7692C19.2798 8.767 17.2351 8.71847 15.6286 9.54009C14.055 10.3448 13.0492 11.9474 13.0492 13.6369C13.0492 16.2158 15.2835 18.3353 17.996 18.3353C19.5366 18.3353 21.0407 17.6649 21.9417 16.4731C22.1313 16.174 22.3045 15.8738 22.487 15.5849C22.6802 15.1605 23.2303 15.0059 23.6708 15.1842C24.1513 15.3784 24.328 15.8569 24.1266 16.3016C23.9134 16.7598 23.6413 17.1616 23.3681 17.5047C22.1101 19.087 20.0831 19.9977 17.996 19.9977C14.2411 19.9977 11.2883 17.1333 11.2883 13.6369C11.2883 10.1112 14.3012 7.30546 17.996 7.30546C20.407 7.30546 22.6661 8.50403 23.8533 10.4859C24.2479 11.145 24.5211 11.8605 24.6425 12.6054C24.7025 13.0636 24.4187 13.5207 23.9134 13.5794C22.4788 13.5794 21.0419 13.6087 19.6049 13.6087H15.3553C14.8736 13.6087 14.4755 13.1968 14.4755 12.7487ZM39.1485 9.36855C39.3004 9.54009 39.3911 9.74099 39.3911 9.97009C39.3911 10.4418 39.0001 10.7725 38.5113 10.7725C38.238 10.7725 38.026 10.6868 37.8435 10.5141C37.3888 10.0277 36.8423 9.62587 36.2051 9.36855C34.992 8.8776 33.469 8.7986 32.2594 9.34033C31.8637 9.50624 31.2818 9.91253 30.8943 9.91253C30.5575 9.91253 30.2842 9.73986 30.1335 9.49946C29.9179 9.15524 29.9521 8.67445 30.4091 8.36522C30.7872 8.12708 31.1452 7.96118 31.5622 7.79301C33.2358 7.11585 35.244 7.14858 36.9036 7.85057C37.7528 8.19367 38.5113 8.70944 39.1485 9.36855ZM34.1416 18.3353C34.6492 18.3353 35.0214 18.6874 35.0214 19.1671C35.0214 19.6456 34.6492 19.9977 34.1416 19.9977C32.3925 19.9977 30.6175 19.3353 29.3761 18.1638C28.7695 17.5904 28.3149 16.9031 27.9498 16.13C27.2242 14.4473 27.2608 12.5286 28.1017 10.8865C28.355 10.4701 28.8072 10.2917 29.2854 10.4859C29.7412 10.6698 29.925 11.1991 29.68 11.6032C29.1194 12.8051 28.9816 14.2599 29.5893 15.4709C29.8626 16.0442 30.1959 16.5307 30.6517 16.9607C31.5798 17.8376 32.8271 18.3353 34.1416 18.3353ZM43.033 14.7836C43.5418 14.7836 43.914 15.1346 43.914 15.6142V19.1671C43.914 19.6264 43.5218 19.9977 43.033 19.9977C42.5677 19.9977 42.1531 19.6072 42.1531 19.1671V15.6142C42.1531 15.1538 42.5465 14.7836 43.033 14.7836ZM47.7984 7.30546C49.2778 7.30546 50.7265 7.86412 51.7736 8.85277C52.8218 9.84143 53.4131 11.2082 53.4131 12.6054V19.1671C53.4131 19.6264 53.0209 19.9977 52.5321 19.9977C52.0445 19.9977 51.6522 19.6264 51.6522 19.1671V12.6054C51.6522 10.6247 49.9138 8.96676 47.7984 8.96676C45.6972 8.96676 43.914 10.5965 43.914 12.6054C43.914 13.0602 43.5347 13.4936 43.033 13.4936C42.5524 13.4936 42.1531 13.0399 42.1531 12.6054V0.830653C42.1531 0.370182 42.5465 0 43.033 0C43.5418 0 43.914 0.350996 43.914 0.830653V8.73766C44.9822 7.84832 46.3674 7.30546 47.7984 7.30546ZM65.5517 7.79301C67.1959 8.48259 68.3749 9.627 69.1028 11.1732C70.1452 13.5884 69.6034 16.288 67.6459 18.1355C65.7001 19.9718 62.8121 20.4876 60.2715 19.5102C57.791 18.4696 56.1739 16.2519 56.1739 13.6663C56.1739 12.5772 56.4472 11.5456 57.0243 10.5999C57.2799 10.1778 57.7428 10.0051 58.208 10.2568C58.6591 10.5005 58.771 10.9644 58.5719 11.4023C58.1468 12.0896 57.9347 12.8345 57.9347 13.6663C57.9347 15.5691 59.1514 17.1909 60.97 17.9629C62.8616 18.7676 64.9263 18.2597 66.4021 16.9607C67.7766 15.6628 68.3113 13.5196 67.4645 11.8323C66.9027 10.654 66.0876 9.89109 64.8544 9.34033C63.4905 8.76023 61.8027 8.85955 60.5142 9.56944C60.0854 9.8008 59.5401 9.62022 59.2998 9.22521C59.0501 8.81214 59.1974 8.31556 59.6343 8.07968C61.4682 7.16212 63.6295 7.05378 65.5517 7.79301Z" fill="#F4F2ED"/>
</svg>
