<svg width="70" height="70" viewBox="0 0 70 70" fill="none" xmlns="http://www.w3.org/2000/svg">
<g opacity="0.9" filter="url(#filter0_d)">
<circle cx="35" cy="29" r="25" fill="white"/>
</g>
<g clip-path="url(#clip0)">
<path fill-rule="evenodd" clip-rule="evenodd" d="M46.9755 24.3501C46.917 23.0217 46.7022 22.1085 46.3945 21.3172C46.077 20.4772 45.5886 19.7252 44.9488 19.1C44.3236 18.4651 43.5666 17.9718 42.7364 17.6593C41.9405 17.3516 41.032 17.1368 39.7037 17.0782C38.3654 17.0147 37.9406 17 34.5464 17C31.1522 17 30.7273 17.0147 29.394 17.0733C28.0657 17.1318 27.1524 17.3468 26.3613 17.6543C25.5211 17.9718 24.7691 18.4602 24.144 19.1C23.5091 19.7252 23.0159 20.4822 22.7033 21.3124C22.3955 22.1085 22.1807 23.0168 22.1222 24.3451C22.0586 25.6834 22.0439 26.1082 22.0439 29.5024C22.0439 32.8967 22.0586 33.3215 22.1172 34.6548C22.1758 35.9832 22.3908 36.8964 22.6985 37.6877C23.0159 38.5277 23.5091 39.2797 24.144 39.9049C24.7691 40.5398 25.5261 41.0331 26.3563 41.3456C27.1524 41.6533 28.0607 41.8681 29.3892 41.9267C30.7224 41.9854 31.1474 41.9999 34.5416 41.9999C37.9358 41.9999 38.3607 41.9854 39.694 41.9267C41.0223 41.8681 41.9355 41.6533 42.7267 41.3456C44.4068 40.696 45.7351 39.3677 46.3847 37.6877C46.6923 36.8916 46.9073 35.9832 46.9658 34.6548C47.0244 33.3215 47.0391 32.8967 47.0391 29.5024C47.0391 26.1082 47.0341 25.6834 46.9755 24.3501ZM44.7242 34.5571C44.6705 35.7781 44.4654 36.4374 44.2944 36.8769C43.8744 37.966 43.01 38.8304 41.9209 39.2505C41.4813 39.4214 40.8172 39.6265 39.6011 39.6801C38.2825 39.7389 37.887 39.7534 34.5513 39.7534C31.2157 39.7534 30.8153 39.7389 29.5014 39.6801C28.2805 39.6265 27.6212 39.4214 27.1816 39.2505C26.6396 39.0502 26.1463 38.7328 25.7459 38.3176C25.3308 37.9123 25.0133 37.4239 24.813 36.8819C24.6421 36.4424 24.437 35.7781 24.3834 34.5621C24.3246 33.2435 24.3101 32.8478 24.3101 29.5122C24.3101 26.1765 24.3246 25.7761 24.3834 24.4624C24.437 23.2415 24.6421 22.5822 24.813 22.1426C25.0133 21.6005 25.3308 21.1073 25.7508 20.7067C26.156 20.2916 26.6444 19.9741 27.1866 19.774C27.6261 19.6031 28.2904 19.398 29.5064 19.3442C30.825 19.2856 31.2206 19.271 34.5561 19.271C37.8967 19.271 38.2922 19.2856 39.606 19.3442C40.827 19.398 41.4863 19.6031 41.9258 19.774C42.4678 19.9741 42.9611 20.2916 43.3616 20.7067C43.7767 21.1121 44.0941 21.6005 44.2944 22.1426C44.4654 22.5822 44.6705 23.2463 44.7242 24.4624C44.7828 25.7811 44.7975 26.1765 44.7975 29.5122C44.7975 32.8478 44.7828 33.2385 44.7242 34.5571ZM34.5464 23.0803C31.0009 23.0803 28.1243 25.9567 28.1243 29.5024C28.1243 33.0481 31.0009 35.9246 34.5464 35.9246C38.0921 35.9246 40.9686 33.0481 40.9686 29.5024C40.9686 25.9567 38.0921 23.0803 34.5464 23.0803ZM34.5464 33.6683C32.2463 33.6683 30.3805 31.8027 30.3805 29.5024C30.3805 27.2021 32.2463 25.3365 34.5464 25.3365C36.8468 25.3365 38.7123 27.2021 38.7123 29.5024C38.7123 31.8027 36.8468 33.6683 34.5464 33.6683ZM41.2224 24.3257C42.0506 24.3257 42.7219 23.6543 42.7219 22.8264C42.7219 21.9982 42.0506 21.3271 41.2224 21.3271C40.3945 21.3271 39.7231 21.9982 39.7231 22.8264C39.7231 23.6543 40.3945 24.3257 41.2224 24.3257Z" fill="#E4405F"/>
</g>
<defs>
<filter id="filter0_d" x="0" y="0" width="70" height="70" filterUnits="userSpaceOnUse" color-interpolation-filters="sRGB">
<feFlood flood-opacity="0" result="BackgroundImageFix"/>
<feColorMatrix in="SourceAlpha" type="matrix" values="0 0 0 0 0 0 0 0 0 0 0 0 0 0 0 0 0 0 127 0"/>
<feOffset dy="6"/>
<feGaussianBlur stdDeviation="5"/>
<feColorMatrix type="matrix" values="0 0 0 0 0.3125 0 0 0 0 0.205859 0 0 0 0 0.160156 0 0 0 0.15 0"/>
<feBlend mode="normal" in2="BackgroundImageFix" result="effect1_dropShadow"/>
<feBlend mode="normal" in="SourceGraphic" in2="effect1_dropShadow" result="shape"/>
</filter>
<clipPath id="clip0">
<rect width="25" height="25" fill="white" transform="translate(22 17)"/>
</clipPath>
</defs>
</svg>
