<svg width="50" height="50" viewBox="0 0 50 50" fill="none" xmlns="http://www.w3.org/2000/svg">
<path fill-rule="evenodd" clip-rule="evenodd" d="M26.629 0.312063L34.054 16.1922C34.1454 16.3567 34.2917 16.4846 34.4746 16.5029L46.2705 17.9831C47.0752 18.1293 47.2581 19.1526 45.4475 19.1526C40.6743 19.1344 36.5595 19.445 33.0298 20.0298L31.2925 20.5049C31.2925 20.4684 31.2742 20.4318 31.2559 20.3953C31.201 20.2308 31.1279 20.0115 31.0364 19.774C30.9633 19.5912 30.8901 19.4085 30.7987 19.2075V19.1709C30.7438 19.0613 30.6889 18.9333 30.5975 18.7506C30.5426 18.5861 30.4695 18.4582 30.4329 18.3668C29.4636 16.3202 28.1835 14.4379 26.6107 12.775C25.1659 11.2582 23.5017 9.96077 21.618 8.93743L25.6597 0.312063C25.7511 0.111048 25.934 0.00140381 26.1352 0.00140381C26.3546 0.00140381 26.5375 0.111048 26.629 0.312063ZM30.1037 20.8156C31.2376 23.9039 32.8287 28.3445 36.8155 26.7546C41.4973 24.909 41.2595 21.1445 45.9413 23.1912C47.2764 23.6481 49.8001 23.6481 49.983 23.9404C50.0928 24.1232 49.8001 24.178 48.9955 24.3059C45.3378 24.9272 42.814 25.4206 40.8206 27.2115C31.2376 35.3252 30.1769 32.4927 24.4709 36.0196C23.4102 36.6775 21.9289 37.4815 20.539 38.1759L20.4841 38.2125L20.4292 38.2308L20.3744 38.2673L20.3195 38.2856L20.2464 38.3221L20.2098 38.3404L20.1915 38.3587L20.1366 38.377L20.1183 38.3952L20.0818 38.4135L20.0269 38.4318L19.9903 38.4501L19.972 38.4683L19.8989 38.4866V38.5049L19.844 38.5232L19.7892 38.5414L19.7526 38.5597L19.7343 38.578L19.6794 38.5962C19.6063 38.6328 19.5331 38.6693 19.46 38.7059L19.4051 38.7242L19.3502 38.7607L19.2954 38.779H19.2771L19.1856 38.8338L19.1308 38.8521L19.0759 38.8704V38.8886H19.0393L18.9845 38.9252L18.9296 38.9435L18.8747 38.9617L18.8565 38.98H18.8199L18.7833 39.0166H18.7467L18.7284 39.0348L18.6736 39.0531L18.637 39.0714L18.5821 39.0896L18.5638 39.1079H18.5273L18.4907 39.1262L18.4724 39.1445L18.4358 39.1627L18.381 39.181L18.3261 39.1993L18.2712 39.2176L18.2529 39.2358H18.2347L18.1615 39.2724C18.1249 39.2724 18.0884 39.2907 18.0701 39.3089L17.9969 39.3272L17.9603 39.3455C17.9238 39.3638 17.8689 39.382 17.814 39.4003L17.7409 39.4186H17.7226L17.6677 39.4551H17.6494L17.5946 39.4734H17.5763L17.5214 39.4917H17.5031C17.4848 39.51 17.4666 39.51 17.4483 39.51C17.2288 39.5648 15.656 39.4551 15.9669 39.1445H15.9852H16.0035V39.1262H16.0218L16.0401 39.1079H16.0584H16.0766L16.0949 39.0896H16.1132L16.1498 39.0714L16.1681 39.0531H16.2047L16.223 39.0348L16.2595 39.0166H16.2778L16.2961 38.9983H16.3327L16.351 38.98H16.3693L16.4058 38.9617L16.4424 38.9435L16.4973 38.9252L16.5339 38.9069L16.5704 38.8886L16.7716 38.7973L16.8265 38.779L16.8813 38.7607L16.9362 38.7242L16.9911 38.7059L17.0459 38.6876L17.1008 38.6511L17.1557 38.6328L17.2105 38.5962L17.2837 38.578L17.3385 38.5414L17.3934 38.5232C17.8689 38.3039 18.3993 38.048 18.9845 37.7739L19.0576 37.7191C19.1674 37.6825 19.2771 37.6277 19.3868 37.5729C21.2522 36.6044 23.3371 35.3435 24.16 34.1739C23.4468 34.1008 20.3195 34.6856 19.2588 33.644C18.5273 32.9313 19.0393 33.0592 19.8623 32.913C21.5083 32.6024 22.8616 32.4927 24.727 31.5607C23.7211 30.1354 23.2456 28.7282 23.0262 27.376L23.0445 27.3577C23.0262 27.3211 23.0079 27.2846 22.9896 27.248C22.953 27.1384 22.9347 27.0288 22.9347 26.9008C22.9164 26.7546 22.9164 26.6998 22.8982 26.5536C22.4227 26.3343 22.3312 26.2247 22.3129 25.7496C22.3129 25.6034 22.3678 25.5486 22.4044 25.3658C22.0203 25.1648 21.6911 25.0917 21.7094 24.6166L21.7277 24.2694C21.7277 24.2694 21.7277 24.2511 21.7277 24.2328L21.5997 24.2511C21.4351 24.2694 21.3071 24.2876 21.1425 24.1963C21.1242 24.1232 21.1425 24.0318 21.1608 23.9587V23.9404V23.9222V23.9039V23.8856L21.1791 23.8673V23.8491V23.8308L21.1974 23.8125V23.7942V23.776L21.2156 23.7577V23.7394V23.7212H21.2339V23.7029V23.6846L21.2522 23.6663V23.6481H21.2705V23.6298V23.6115L21.2888 23.5932V23.575L21.3071 23.5567L21.3254 23.5201L21.3437 23.5019V23.4836L21.3619 23.4653V23.447L21.3802 23.4288L21.3985 23.4105V23.3922V23.3739H21.4168V23.3557L21.4351 23.3374V23.3191L21.4534 23.3008L21.4717 23.2826V23.2643V23.246H21.49V23.2278L21.5083 23.2095V23.1912H21.5265V23.1729L21.5448 23.1547V23.1364L21.5631 23.1181V23.0998L21.5814 23.0816V23.0633H21.5997V23.045L21.618 23.0267V23.0085V22.9902H21.6363V22.9719L21.6546 22.9536V22.9354L21.6728 22.9171V22.8988V22.8805H21.6911V22.8623L21.7094 22.8257C21.2705 22.8988 20.7401 22.9902 20.1001 22.3506C20.5573 21.4186 22.4775 21.6196 22.8982 20.779H22.0386C22.0203 20.779 21.9655 20.779 21.9106 20.779C20.4658 20.7242 19.9903 20.1943 19.3685 19.1344C19.3685 19.0978 19.332 19.0064 19.332 19.0064C20.2829 18.6775 21.8192 19.5364 23.0993 19.1892C22.7153 18.7689 19.588 18.5313 18.8565 16.5212C18.765 16.3019 18.7102 16.1191 18.8382 15.8085C20.4658 16.6308 21.7826 16.978 23.52 17.508C23.52 17.4897 23.5017 17.4897 23.5017 17.4714C23.5017 17.4714 23.4834 17.4714 23.4834 17.4531C23.4834 17.4531 23.4651 17.4531 23.4651 17.4349C23.4468 17.4166 23.4468 17.4166 23.4285 17.4166L23.4102 17.3983C23.4102 17.3983 23.4102 17.38 23.3919 17.38L23.3737 17.3618L23.3554 17.3435H23.3371L23.3005 17.307H23.2822L23.2639 17.2887L23.2456 17.2704L23.2091 17.2521L23.1908 17.2339L23.1542 17.2156L23.1359 17.1973L23.0993 17.179H23.081L23.0445 17.1608L23.0262 17.1425L22.9713 17.1242L22.953 17.1059L22.9164 17.0877L22.8982 17.0694L22.8433 17.0511H22.825L22.7701 17.0146L22.697 16.978C21.5265 16.4115 19.5697 15.7354 18.7467 14.6389C18.4541 14.2552 18.1798 13.7252 18.4907 13.3232C18.6553 13.3963 18.9662 13.5425 19.3685 13.7435L19.4234 13.7618L19.46 13.7801L19.5148 13.8166L19.5514 13.8349L19.6429 13.8714L19.7343 13.9262H19.7526L19.8257 13.9628L19.8623 13.9811L19.9355 14.0176L19.9903 14.0359L20.0269 14.0724L20.1183 14.109H20.1366L20.2464 14.1638L20.3378 14.2186H20.3744L20.4475 14.2552L20.5024 14.2917L20.5573 14.31L20.6304 14.3466L20.667 14.3648L20.7767 14.4196L20.8865 14.4745H20.9047L21.0145 14.5293L21.051 14.5476L21.1242 14.5841L21.1974 14.6207L21.2339 14.6389L21.3254 14.6755L21.3619 14.6938L21.4717 14.7486L21.5814 14.8034L21.618 14.8217L21.7094 14.8582L21.7643 14.8765L21.8192 14.913L21.9106 14.9496L21.9472 14.9679L22.0386 15.0044L22.0569 15.0227L22.1666 15.0775H22.1849L22.2946 15.1323L22.3312 15.1506L22.4044 15.1689L22.4775 15.2054L22.5141 15.2237L22.6055 15.2785H22.6421L22.7519 15.3334L22.8616 15.3882L22.8799 15.4064L22.9713 15.443L23.0262 15.4613L23.081 15.4795L23.1908 15.5344L23.2822 15.5709L23.4102 15.6257V15.644H23.4285L23.5382 15.6988L23.6114 15.7171L23.6663 15.7537H23.6846L23.776 15.7902L23.7943 15.8085H23.8126L23.904 15.845L23.9955 15.8998H24.0137L24.0503 15.9181L24.1235 15.9364L24.1418 15.9547L24.2149 15.9912H24.2332L24.2698 16.0095H24.2881L24.3795 16.046L24.4344 16.0826L24.5075 16.1009H24.5258L24.5624 16.1191L24.599 16.1374L24.6355 16.1557L24.6904 16.174L24.7087 16.1922L24.7818 16.2105L24.855 16.2471H24.8733L24.9099 16.2653H24.9464L24.983 16.2836H25.0013L25.0379 16.3019H25.0562C25.0745 16.3202 25.0745 16.3202 25.0927 16.3202H25.111C25.111 16.3202 25.1293 16.3384 25.1476 16.3384H25.1659H25.1842H25.2025H25.2208C25.2208 16.3384 25.2208 16.3567 25.239 16.3384C23.6663 14.8582 21.8009 13.7435 19.972 12.6288H19.9538V12.6105H19.9355H19.9172V12.5922C19.3502 12.2268 18.8747 11.642 18.7284 11.0024L18.6919 10.8014C18.6919 10.6917 18.6919 10.6186 18.7467 10.4907C19.332 10.3994 20.0086 10.6917 20.6121 11.0938L20.667 11.1303L20.6853 11.1486L20.7401 11.1851L20.795 11.2217V11.24H20.8133L20.8682 11.2765C20.8865 11.2948 20.9047 11.3131 20.923 11.3313H20.9413L20.9962 11.3679V11.3862L21.051 11.4227H21.0693L21.1242 11.4592L21.1791 11.5141L21.2339 11.5506V11.5689H21.2522L21.2888 11.6054L21.3437 11.6603H21.3619L21.3985 11.6968L21.4168 11.7151L21.4534 11.7516H21.4717L21.49 11.7699L21.5083 11.7882L21.5265 11.8065L21.5448 11.8247L21.5631 11.843L21.618 11.8796L21.6363 11.8978L21.6728 11.9344L21.6911 11.9526L21.7094 11.9709L21.746 12.0075H21.7643L21.7826 12.0257L21.8009 12.044V12.0623L21.8192 12.0806L21.8557 12.0988L21.874 12.1171L21.8923 12.1354L21.9289 12.1719L21.9472 12.1902L21.9655 12.2085L21.9837 12.2268L22.002 12.245L22.0386 12.2633V12.2816H22.0569L22.0752 12.2999L22.0935 12.3181L22.1118 12.3364L22.1301 12.3547V12.373L22.1483 12.3912H22.1666L22.1849 12.4095L22.2032 12.4278L22.2215 12.446V12.4643H22.2398L22.2581 12.4826L22.2764 12.5009L22.2581 12.4643H22.2398V12.4278H22.2215V12.4095H22.2032V12.3912L22.1849 12.373V12.3547L22.1666 12.3364H22.1483L22.1301 12.3181V12.2999L22.1118 12.2816L22.0935 12.2633L22.0752 12.245V12.2268L22.0569 12.2085L22.0386 12.1902L22.0203 12.1537H22.002L21.9837 12.1354L21.9655 12.1171V12.0988L21.9472 12.0806V12.0623L21.9289 12.044L21.9106 12.0257H21.8923L21.874 11.9892L21.8557 11.9526H21.8374L21.8192 11.9344L21.8009 11.8978L21.7643 11.8613L21.746 11.843L21.7277 11.8247V11.8065L21.6911 11.7882V11.7699C21.6546 11.7334 21.6363 11.6968 21.5997 11.6603L21.5814 11.642L21.5631 11.6237L21.5448 11.5872L21.5265 11.5506H21.5083L21.49 11.5323L21.4717 11.4958L21.4351 11.4592L21.4168 11.4227L21.3619 11.3679L21.3437 11.3313C21.2705 11.24 21.2156 11.1669 21.1608 11.0755L21.1425 11.0572C21.1242 11.0207 21.1059 11.0024 21.0876 10.9658H21.0693L21.051 10.9293L21.0328 10.911C21.0145 10.8745 21.0145 10.8562 20.9962 10.8379L20.9779 10.8014L20.9596 10.7831V10.7648L20.9413 10.7466L20.923 10.7283L20.9047 10.6917V10.6735L20.8865 10.6552V10.6369L20.8682 10.6186L20.8499 10.5821C20.7036 10.308 20.6304 10.0339 20.7036 9.83286C20.8499 9.90595 20.9779 9.97905 21.1059 10.0521C21.618 10.3263 22.1301 10.6369 22.6055 10.9658C22.6604 11.0024 22.697 11.0389 22.7519 11.0755H22.7701C22.825 11.112 22.8616 11.1486 22.9164 11.1851H22.9347C22.9713 11.2217 23.0262 11.2582 23.0628 11.2948L23.081 11.3131C23.1359 11.3313 23.1725 11.3679 23.2091 11.4044L23.2456 11.4227C23.2822 11.4592 23.3371 11.4958 23.3737 11.5141L23.4102 11.5506C23.4468 11.5689 23.4834 11.6054 23.52 11.6237L23.5565 11.6603C23.5931 11.6968 23.6297 11.7151 23.6663 11.7516L23.7211 11.7882C23.7577 11.8065 23.7943 11.843 23.8309 11.8796L23.8674 11.9161C23.904 11.9344 23.9406 11.9709 23.9772 11.9892L24.032 12.0257C24.0503 12.0623 24.0869 12.0988 24.1235 12.1171L24.1783 12.1537C24.2149 12.1902 24.2332 12.2085 24.2698 12.245L24.3246 12.2816C24.3612 12.3181 24.3978 12.3364 24.4344 12.373L24.4709 12.4095C24.5075 12.446 24.5441 12.4643 24.5624 12.5009L24.6173 12.5374C24.6538 12.574 24.6721 12.5922 24.7087 12.6288L24.7636 12.6653C24.7818 12.7019 24.8184 12.7384 24.855 12.7567L24.9099 12.8115C24.9282 12.8298 24.9647 12.8664 25.0013 12.9029L25.0379 12.9394C25.0745 12.976 25.111 12.9943 25.1476 13.0308L25.1842 13.0674C25.2208 13.1039 25.239 13.1405 25.2756 13.1587L25.3122 13.1953C25.3488 13.2318 25.3854 13.2684 25.4219 13.3049L25.4585 13.3415C25.4768 13.378 25.5134 13.4146 25.5499 13.4328L25.5865 13.4694C25.6231 13.5059 25.6597 13.5425 25.6963 13.579L25.7145 13.6156C25.7511 13.6521 25.7877 13.6887 25.8243 13.7252L25.8426 13.7435C25.8791 13.7801 25.9157 13.8166 25.9523 13.8714L25.9706 13.8897C26.1717 14.109 26.3912 14.3466 26.5741 14.5841C26.6107 14.6207 26.6472 14.6572 26.6838 14.6938L26.7021 14.7303C26.7387 14.7669 26.757 14.7851 26.7753 14.8217L26.8301 14.8948L26.9033 14.9679L26.9581 15.041C26.9764 15.0775 26.9947 15.0958 27.0313 15.1323L27.0679 15.1872L27.141 15.2785L27.1959 15.3516L27.2508 15.4247L27.3056 15.4978C27.3239 15.5344 27.3422 15.5526 27.3605 15.5892L27.4153 15.6623L27.4702 15.7354L27.5251 15.8085L27.5982 15.8998L27.6348 15.9729L27.6897 16.046L27.7445 16.1374L27.7994 16.2105L27.8543 16.2836L27.9091 16.375L27.964 16.4663L28.0189 16.5394L28.0737 16.6125L28.1286 16.7039L28.1652 16.777L28.22 16.8684L28.2749 16.9597L28.3298 17.0328L28.3663 17.1059L28.4212 17.1973L28.4761 17.2704L28.5309 17.3618L28.5675 17.4349L28.6224 17.5262L28.6589 17.5993L28.7138 17.6907C28.7321 17.7273 28.7504 17.7638 28.7687 17.7821L28.8053 17.8552C28.8235 17.8917 28.8418 17.9283 28.8601 17.9648L28.8967 18.0379L28.9516 18.1293L28.9881 18.2024C29.0064 18.2389 29.0064 18.2572 29.0247 18.2938L29.0796 18.3851L29.1162 18.4582L29.1527 18.5496L29.1893 18.6044C29.2442 18.6958 29.2807 18.8054 29.3173 18.8968C29.4271 19.0978 29.5368 19.3536 29.6465 19.6278C29.8111 20.0115 29.9757 20.4135 30.1037 20.7973V20.8156ZM21.0328 10.911C21.0145 10.8745 21.0145 10.8562 20.9962 10.8379L21.0328 10.911ZM20.0269 24.708C14.6319 28.6552 14.7233 33.7719 18.2712 36.7688C17.0825 37.3353 16.0584 37.7922 15.656 37.9567L15.4549 38.0298C15.3268 38.1028 15.1988 38.1759 15.0891 38.2856C14.8513 38.5414 14.7233 38.8155 14.705 39.1262C14.6502 39.7292 14.9428 40.1495 15.4731 40.4237C15.6194 40.515 15.8206 40.5699 16.0401 40.6247C16.5887 40.7526 17.5397 40.7526 17.7775 40.6978C18.5273 40.4785 19.7526 39.9485 21.0328 39.2907C21.3985 39.1262 21.7643 38.9435 22.1301 38.7424C26.3546 39.9303 32.3532 39.2176 39.1015 34.9597C39.2478 34.8683 39.4307 34.8683 39.5953 34.9414C39.7599 35.0145 39.8696 35.1424 39.9062 35.3252L42.5031 49.3597C42.5397 49.579 42.4483 49.78 42.2837 49.9079C42.1008 50.0175 41.8813 50.0358 41.6985 49.9445L26.4095 41.4836C26.2449 41.3739 26.0437 41.3739 25.8791 41.4836L10.5902 49.9445C10.4073 50.0358 10.1878 50.0175 10.005 49.9079C9.84036 49.78 9.74892 49.579 9.7855 49.3597L13.0774 32.1272C13.114 31.9445 13.0591 31.7617 12.9128 31.6338L0.165894 19.6278C0.0195883 19.4633 -0.0352764 19.2623 0.0378765 19.0613C0.0927412 18.8602 0.257335 18.7141 0.476794 18.6958L17.5763 16.5212C17.6129 16.6674 17.6494 16.7953 17.7043 16.9232C17.8872 17.4166 18.1432 17.8186 18.4358 18.1658C18.1798 18.4399 18.0701 18.8237 18.1249 19.2075C18.1432 19.2806 18.1615 19.3536 18.1798 19.4267C18.1981 19.445 18.2164 19.5181 18.2529 19.5912C18.2712 19.646 18.2895 19.6826 18.3078 19.7374C18.6553 20.3222 18.9845 20.7973 19.4417 21.1811C19.2771 21.3455 19.1308 21.5465 19.0028 21.8024C18.7833 22.2592 18.8565 22.8257 19.2405 23.2095C19.4783 23.447 19.716 23.6298 19.9355 23.776C19.8989 23.9587 19.8989 24.178 19.9355 24.4156C19.9538 24.5069 19.9903 24.6166 20.0269 24.708Z" fill="#DC5A52"/>
</svg>
