<svg width="70" height="70" viewBox="0 0 70 70" fill="none" xmlns="http://www.w3.org/2000/svg">
<g opacity="0.9" filter="url(#filter0_d)">
<circle cx="35" cy="29" r="25" fill="white"/>
</g>
<g clip-path="url(#clip0)">
<path d="M42.7448 30.5708C42.3406 30.0603 42.4562 29.8333 42.7448 29.377C42.75 29.3718 46.0865 24.7614 46.4302 23.1978L46.4323 23.1968C46.6031 22.627 46.4323 22.2083 45.6062 22.2083H42.8729C42.1771 22.2083 41.8562 22.5676 41.6844 22.9697C41.6844 22.9697 40.2927 26.301 38.324 28.4603C37.6885 29.0843 37.3948 29.2843 37.0479 29.2843C36.8771 29.2843 36.6115 29.0843 36.6115 28.5145V23.1968C36.6115 22.5135 36.4167 22.2083 35.8406 22.2083H31.5427C31.1062 22.2083 30.8469 22.527 30.8469 22.8239C30.8469 23.4718 31.8313 23.6208 31.9333 25.4437V29.3989C31.9333 30.2655 31.776 30.4249 31.4271 30.4249C30.4979 30.4249 28.2427 27.0801 26.9062 23.252C26.6365 22.5093 26.3729 22.2093 25.6719 22.2093H22.9375C22.1573 22.2093 22 22.5687 22 22.9708C22 23.6812 22.9292 27.2135 26.3208 31.8801C28.5812 35.0655 31.7646 36.7916 34.6604 36.7916C36.401 36.7916 36.6135 36.4083 36.6135 35.7489C36.6135 32.7051 36.4562 32.4176 37.3281 32.4176C37.7323 32.4176 38.4281 32.6176 40.0531 34.1541C41.9104 35.976 42.2156 36.7916 43.2552 36.7916H45.9885C46.7677 36.7916 47.1625 36.4083 46.9354 35.652C46.4156 34.0614 42.9031 30.7895 42.7448 30.5708Z" fill="#9C9C9C"/>
</g>
<defs>
<filter id="filter0_d" x="0" y="0" width="70" height="70" filterUnits="userSpaceOnUse" color-interpolation-filters="sRGB">
<feFlood flood-opacity="0" result="BackgroundImageFix"/>
<feColorMatrix in="SourceAlpha" type="matrix" values="0 0 0 0 0 0 0 0 0 0 0 0 0 0 0 0 0 0 127 0"/>
<feOffset dy="6"/>
<feGaussianBlur stdDeviation="5"/>
<feColorMatrix type="matrix" values="0 0 0 0 0.3125 0 0 0 0 0.205859 0 0 0 0 0.160156 0 0 0 0.15 0"/>
<feBlend mode="normal" in2="BackgroundImageFix" result="effect1_dropShadow"/>
<feBlend mode="normal" in="SourceGraphic" in2="effect1_dropShadow" result="shape"/>
</filter>
<clipPath id="clip0">
<rect width="25" height="25" fill="white" transform="translate(22 17)"/>
</clipPath>
</defs>
</svg>
